<svg width="27" height="27" viewBox="0 0 27 27" fill="none" xmlns="http://www.w3.org/2000/svg">
<path d="M13.5 0C18.6426 0 21.2144 -0.000475807 23.1133 1.1377C24.2416 1.81402 25.186 2.75838 25.8623 3.88672C27.0005 5.78564 27 8.3574 27 13.5C27 18.6426 27.0005 21.2144 25.8623 23.1133C25.186 24.2416 24.2416 25.186 23.1133 25.8623C21.2144 27.0005 18.6426 27 13.5 27C8.3574 27 5.78564 27.0005 3.88672 25.8623C2.75838 25.186 1.81402 24.2416 1.1377 23.1133C-0.000475807 21.2144 0 18.6426 0 13.5C0 8.3574 -0.000475807 5.78564 1.1377 3.88672C1.81402 2.75838 2.75838 1.81402 3.88672 1.1377C5.78564 -0.000475807 8.3574 0 13.5 0ZM13.5 5C12.2899 5 11.1755 5.21307 10.1572 5.63965C9.12433 6.05152 8.22434 6.64042 7.45703 7.40527C6.67499 8.17013 6.06953 9.06709 5.6416 10.0967C5.21366 11.1263 5.00001 12.2518 5 13.4727C5 14.6936 5.22136 15.819 5.66406 16.8486C5.99872 17.6538 6.43825 18.3772 6.98047 19.0205L5.2832 23L10.0391 21.2754C10.0786 21.2924 10.1173 21.3116 10.1572 21.3281C11.1902 21.7547 12.3047 21.9678 13.5 21.9678C14.6953 21.9678 15.8098 21.7547 16.8428 21.3281C17.8609 20.9015 18.7609 20.3049 19.543 19.54C20.3102 18.7752 20.9157 17.8782 21.3584 16.8486C21.7863 15.819 22 14.6935 22 13.4727C22 12.2518 21.7863 11.1263 21.3584 10.0967C20.9157 9.05238 20.3103 8.15543 19.543 7.40527C18.7757 6.64042 17.8757 6.05152 16.8428 5.63965C15.8098 5.21307 14.6953 5 13.5 5ZM13.5 7.36133C14.3558 7.36133 15.1452 7.5154 15.8682 7.82422C16.5764 8.13308 17.1963 8.56711 17.7275 9.12598C18.2587 9.68489 18.6726 10.332 18.9678 11.0674C19.2481 11.8028 19.3877 12.6048 19.3877 13.4727C19.3877 14.3403 19.248 15.1494 18.9678 15.8994C18.6726 16.6349 18.2588 17.2828 17.7275 17.8418C17.1964 18.3858 16.5695 18.8123 15.8467 19.1211C15.1236 19.43 14.3411 19.585 13.5 19.585C12.6441 19.585 11.8617 19.43 11.1533 19.1211C10.4305 18.8123 9.80357 18.3858 9.27246 17.8418C8.74121 17.2828 8.32737 16.6349 8.03223 15.8994C7.73722 15.1494 7.58984 14.3403 7.58984 13.4727C7.58986 12.6048 7.7371 11.8028 8.03223 11.0674C8.32736 10.332 8.74126 9.6849 9.27246 9.12598C9.8036 8.56718 10.4304 8.13308 11.1533 7.82422C11.8617 7.51532 12.6441 7.36133 13.5 7.36133Z" fill="#242A40"/>
</svg>
