<svg width="100" height="100" viewBox="0 0 100 100" fill="none" xmlns="http://www.w3.org/2000/svg">
<path d="M50 100C22.39 100 0 77.61 0 50C0 22.39 22.39 0 50 0C77.61 0 100 22.39 100 50C100 77.61 77.61 100 50 100Z" fill="url(#paint0_linear)"/>
<path d="M50.0008 22.0199C59.1108 22.0199 60.1908 22.0499 63.7908 22.2199C67.1208 22.3699 68.9308 22.9299 70.1308 23.3999C71.7208 24.0199 72.8608 24.7599 74.0508 25.9499C75.2408 27.1399 75.9808 28.2799 76.6008 29.8699C77.0708 31.0699 77.6208 32.8799 77.7808 36.2099C77.9408 39.8099 77.9808 40.8899 77.9808 49.9999C77.9808 59.1099 77.9508 60.1899 77.7808 63.7899C77.6308 67.1199 77.0708 68.9299 76.6008 70.1299C75.9808 71.7199 75.2408 72.8599 74.0508 74.0499C72.8608 75.2399 71.7208 75.9799 70.1308 76.5999C68.9308 77.0699 67.1208 77.6199 63.7908 77.7799C60.1908 77.9399 59.1108 77.9799 50.0008 77.9799C40.8908 77.9799 39.8108 77.9499 36.2108 77.7799C32.8808 77.6299 31.0708 77.0699 29.8708 76.5999C28.2808 75.9799 27.1408 75.2399 25.9508 74.0499C24.7608 72.8599 24.0208 71.7199 23.4008 70.1299C22.9308 68.9299 22.3808 67.1199 22.2208 63.7899C22.0608 60.1899 22.0208 59.1099 22.0208 49.9999C22.0208 40.8899 22.0508 39.8099 22.2208 36.2099C22.3708 32.8799 22.9308 31.0699 23.4008 29.8699C24.0208 28.2799 24.7608 27.1399 25.9508 25.9499C27.1408 24.7599 28.2808 24.0199 29.8708 23.3999C31.0708 22.9299 32.8808 22.3799 36.2108 22.2199C39.8108 22.0499 40.8908 22.0199 50.0008 22.0199ZM50.0008 15.8699C40.7308 15.8699 39.5708 15.9099 35.9308 16.0799C32.3008 16.2499 29.8208 16.8199 27.6408 17.6699C25.4008 18.5299 23.4908 19.6999 21.6008 21.5999C19.7008 23.4999 18.5408 25.3999 17.6608 27.6499C16.8208 29.8199 16.2408 32.2999 16.0708 35.9399C15.9008 39.5799 15.8608 40.7399 15.8608 50.0099C15.8608 59.2799 15.9008 60.4399 16.0708 64.0799C16.2408 67.7099 16.8108 70.1899 17.6608 72.3699C18.5308 74.5999 19.7008 76.5099 21.6008 78.3999C23.5008 80.2999 25.4008 81.4599 27.6508 82.3399C29.8208 83.1799 32.3008 83.7599 35.9408 83.9299C39.5808 84.0999 40.7408 84.1399 50.0108 84.1399C59.2808 84.1399 60.4408 84.0999 64.0808 83.9299C67.7108 83.7599 70.1908 83.1899 72.3708 82.3399C74.6008 81.4699 76.5108 80.2999 78.4008 78.3999C80.3008 76.4999 81.4608 74.5999 82.3408 72.3499C83.1808 70.1799 83.7608 67.6999 83.9308 64.0599C84.1008 60.4199 84.1408 59.2599 84.1408 49.9899C84.1408 40.7199 84.1008 39.5599 83.9308 35.9199C83.7608 32.2899 83.1908 29.8099 82.3408 27.6299C81.4708 25.3999 80.3008 23.4899 78.4008 21.5999C76.5008 19.6999 74.6008 18.5399 72.3508 17.6599C70.1808 16.8199 67.7008 16.2399 64.0608 16.0699C60.4308 15.9099 59.2708 15.8699 50.0008 15.8699Z" fill="white"/>
<path d="M50.0007 32.47C40.3207 32.47 32.4707 40.32 32.4707 50C32.4707 59.68 40.3207 67.53 50.0007 67.53C59.6807 67.53 67.5307 59.68 67.5307 50C67.5307 40.32 59.6807 32.47 50.0007 32.47ZM50.0007 61.38C43.7207 61.38 38.6207 56.29 38.6207 50C38.6207 43.71 43.7207 38.62 50.0007 38.62C56.2807 38.62 61.3807 43.71 61.3807 50C61.3807 56.29 56.2807 61.38 50.0007 61.38Z" fill="white"/>
<path d="M68.2213 35.8797C70.4857 35.8797 72.3214 34.0441 72.3214 31.7797C72.3214 29.5153 70.4857 27.6797 68.2213 27.6797C65.957 27.6797 64.1213 29.5153 64.1213 31.7797C64.1213 34.0441 65.957 35.8797 68.2213 35.8797Z" fill="white"/>
<defs>
<linearGradient id="paint0_linear" x1="14.6446" y1="85.3553" x2="85.3553" y2="14.6446" gradientUnits="userSpaceOnUse">
<stop stop-color="#FFD521"/>
<stop offset="0.0551048" stop-color="#FFD020"/>
<stop offset="0.1241" stop-color="#FEC01E"/>
<stop offset="0.2004" stop-color="#FCA71B"/>
<stop offset="0.2821" stop-color="#FA8316"/>
<stop offset="0.3681" stop-color="#F85510"/>
<stop offset="0.4563" stop-color="#F51E09"/>
<stop offset="0.5" stop-color="#F30005"/>
<stop offset="0.5035" stop-color="#F20007"/>
<stop offset="0.5966" stop-color="#E1003B"/>
<stop offset="0.6879" stop-color="#D30067"/>
<stop offset="0.7757" stop-color="#C70088"/>
<stop offset="0.8589" stop-color="#BF00A0"/>
<stop offset="0.9357" stop-color="#BB00AF"/>
<stop offset="1" stop-color="#B900B4"/>
</linearGradient>
</defs>
</svg>
