<svg width="85" height="27" viewBox="0 0 85 27" fill="none" xmlns="http://www.w3.org/2000/svg">
<path d="M50.921 21.228C50.1483 21.228 49.4707 21.057 48.888 20.715C48.3053 20.3603 47.8493 19.8727 47.52 19.252C47.2033 18.6187 47.045 17.8903 47.045 17.067V10.721H49.192V16.877C49.192 17.3457 49.287 17.7573 49.477 18.112C49.667 18.4667 49.933 18.7453 50.275 18.948C50.617 19.138 51.0097 19.233 51.453 19.233C51.909 19.233 52.308 19.1317 52.65 18.929C52.992 18.7263 53.258 18.4413 53.448 18.074C53.6507 17.7067 53.752 17.276 53.752 16.782V10.721H55.88V21H53.847V18.986L54.075 19.252C53.8343 19.8853 53.4353 20.373 52.878 20.715C52.3207 21.057 51.6683 21.228 50.921 21.228ZM61.0848 21.228C60.3881 21.228 59.7738 21.1077 59.2418 20.867C58.7225 20.6137 58.3171 20.2717 58.0258 19.841C57.7345 19.3977 57.5888 18.8783 57.5888 18.283C57.5888 17.7257 57.7091 17.2253 57.9498 16.782C58.2031 16.3387 58.5895 15.965 59.1088 15.661C59.6281 15.357 60.2805 15.1417 61.0658 15.015L64.6378 14.426V16.117L61.4838 16.668C60.9138 16.7693 60.4958 16.953 60.2298 17.219C59.9638 17.4723 59.8308 17.8017 59.8308 18.207C59.8308 18.5997 59.9765 18.9227 60.2678 19.176C60.5718 19.4167 60.9581 19.537 61.4268 19.537C62.0095 19.537 62.5161 19.4103 62.9468 19.157C63.3901 18.9037 63.7321 18.568 63.9728 18.15C64.2135 17.7193 64.3338 17.2443 64.3338 16.725V14.084C64.3338 13.5773 64.1438 13.1657 63.7638 12.849C63.3965 12.5197 62.9025 12.355 62.2818 12.355C61.7118 12.355 61.2115 12.507 60.7808 12.811C60.3628 13.1023 60.0525 13.4823 59.8498 13.951L58.0638 13.058C58.2538 12.5513 58.5641 12.108 58.9948 11.728C59.4255 11.3353 59.9258 11.0313 60.4958 10.816C61.0785 10.6007 61.6928 10.493 62.3388 10.493C63.1495 10.493 63.8651 10.645 64.4858 10.949C65.1191 11.253 65.6068 11.6773 65.9488 12.222C66.3035 12.754 66.4808 13.3747 66.4808 14.084V21H64.4288V19.138L64.8658 19.195C64.6251 19.613 64.3148 19.974 63.9348 20.278C63.5675 20.582 63.1431 20.8163 62.6618 20.981C62.1931 21.1457 61.6675 21.228 61.0848 21.228ZM68.6112 21V6.617H70.7582V21H68.6112ZM73.8004 25.18C73.5471 25.18 73.2937 25.1547 73.0404 25.104C72.7997 25.066 72.5781 25.0027 72.3754 24.914V23.071C72.5274 23.109 72.7111 23.1407 72.9264 23.166C73.1417 23.204 73.3507 23.223 73.5534 23.223C74.1487 23.223 74.5857 23.09 74.8644 22.824C75.1557 22.5707 75.4154 22.178 75.6434 21.646L76.3274 20.088L76.2894 21.893L71.8434 10.721H74.1424L77.4294 19.29H76.6504L79.9184 10.721H82.2364L77.6954 22.121C77.4547 22.729 77.1507 23.261 76.7834 23.717C76.4287 24.1857 76.0044 24.5467 75.5104 24.8C75.0291 25.0533 74.4591 25.18 73.8004 25.18Z" fill="white"/>
<path d="M38.296 21.111C37.27 21.111 36.3137 20.9273 35.427 20.56C34.553 20.1927 33.7803 19.6797 33.109 19.021C32.4503 18.3623 31.931 17.5897 31.551 16.703C31.1837 15.8163 31 14.8473 31 13.796C31 12.7447 31.1837 11.7757 31.551 10.889C31.931 9.98967 32.4503 9.217 33.109 8.571C33.7677 7.91233 34.5403 7.40567 35.427 7.051C36.3137 6.68367 37.27 6.5 38.296 6.5C39.3347 6.5 40.291 6.68367 41.165 7.051C42.0517 7.40567 42.8243 7.91233 43.483 8.571C44.1543 9.22967 44.6737 10.0023 45.041 10.889C45.4083 11.7757 45.592 12.7447 45.592 13.796C45.592 14.8473 45.402 15.8163 45.022 16.703C44.6547 17.5897 44.1417 18.3623 43.483 19.021C42.8243 19.6797 42.0517 20.1927 41.165 20.56C40.2783 20.9273 39.322 21.111 38.296 21.111ZM38.296 19.059C39.0307 19.059 39.702 18.926 40.31 18.66C40.9307 18.394 41.469 18.0267 41.925 17.558C42.381 17.0767 42.7357 16.5193 42.989 15.886C43.2423 15.24 43.369 14.5433 43.369 13.796C43.369 13.0487 43.2423 12.3583 42.989 11.725C42.7357 11.0917 42.381 10.5343 41.925 10.053C41.469 9.57167 40.9307 9.198 40.31 8.932C39.702 8.666 39.0307 8.533 38.296 8.533C37.5613 8.533 36.8837 8.666 36.263 8.932C35.655 9.198 35.123 9.57167 34.667 10.053C34.211 10.5343 33.8563 11.0917 33.603 11.725C33.3623 12.3583 33.242 13.0487 33.242 13.796C33.242 14.5433 33.3623 15.24 33.603 15.886C33.8563 16.5193 34.211 17.0767 34.667 17.558C35.123 18.0267 35.6613 18.394 36.282 18.66C36.9027 18.926 37.574 19.059 38.296 19.059ZM45.349 22L39.849 20L42.989 16.4542L45.349 22Z" fill="white"/>
<path d="M13.5 3.32057e-10C18.6426 3.32057e-10 21.2144 -0.000475807 23.1133 1.1377C24.2416 1.81402 25.186 2.75838 25.8623 3.88672C27.0005 5.78564 27 8.3574 27 13.5C27 18.6426 27.0005 21.2144 25.8623 23.1133C25.186 24.2416 24.2416 25.186 23.1133 25.8623C21.2144 27.0005 18.6426 27 13.5 27C8.3574 27 5.78564 27.0005 3.88672 25.8623C2.75838 25.186 1.81402 24.2416 1.1377 23.1133C-0.000475807 21.2144 3.32057e-10 18.6426 3.32057e-10 13.5C3.32057e-10 8.3574 -0.000475807 5.78564 1.1377 3.88672C1.81402 2.75838 2.75838 1.81402 3.88672 1.1377C5.78564 -0.000475807 8.3574 3.32057e-10 13.5 3.32057e-10ZM13.5 5C12.2899 5 11.1755 5.21307 10.1572 5.63965C9.12433 6.05152 8.22434 6.64042 7.45703 7.40527C6.67499 8.17013 6.06953 9.06709 5.6416 10.0967C5.21366 11.1263 5.00001 12.2518 5 13.4727C5 14.6936 5.22136 15.819 5.66406 16.8486C5.99872 17.6538 6.43825 18.3772 6.98047 19.0205L5.2832 23L10.0391 21.2754C10.0786 21.2924 10.1173 21.3116 10.1572 21.3281C11.1902 21.7547 12.3047 21.9678 13.5 21.9678C14.6953 21.9678 15.8098 21.7547 16.8428 21.3281C17.8609 20.9015 18.7609 20.3049 19.543 19.54C20.3102 18.7752 20.9157 17.8782 21.3584 16.8486C21.7863 15.819 22 14.6935 22 13.4727C22 12.2518 21.7863 11.1263 21.3584 10.0967C20.9157 9.05238 20.3103 8.15543 19.543 7.40527C18.7757 6.64042 17.8757 6.05152 16.8428 5.63965C15.8098 5.21307 14.6953 5 13.5 5ZM13.5 7.36133C14.3558 7.36133 15.1452 7.5154 15.8682 7.82422C16.5764 8.13308 17.1963 8.56711 17.7275 9.12598C18.2587 9.68489 18.6726 10.332 18.9678 11.0674C19.2481 11.8028 19.3877 12.6048 19.3877 13.4727C19.3877 14.3403 19.248 15.1494 18.9678 15.8994C18.6726 16.6349 18.2588 17.2828 17.7275 17.8418C17.1964 18.3858 16.5695 18.8123 15.8467 19.1211C15.1236 19.43 14.3411 19.585 13.5 19.585C12.6441 19.585 11.8617 19.43 11.1533 19.1211C10.4305 18.8123 9.80357 18.3858 9.27246 17.8418C8.74121 17.2828 8.32737 16.6349 8.03223 15.8994C7.73722 15.1494 7.58984 14.3403 7.58984 13.4727C7.58986 12.6048 7.7371 11.8028 8.03223 11.0674C8.32736 10.332 8.74126 9.6849 9.27246 9.12598C9.8036 8.56718 10.4304 8.13308 11.1533 7.82422C11.8617 7.51532 12.6441 7.36133 13.5 7.36133Z" fill="white"/>
</svg>
