<?xml version="1.0" encoding="utf-8"?>
<!-- Generator: Adobe Illustrator 24.1.0, SVG Export Plug-In . SVG Version: 6.00 Build 0)  -->
<svg version="1.1" id="Layer_1" xmlns="http://www.w3.org/2000/svg" xmlns:xlink="http://www.w3.org/1999/xlink" x="0px" y="0px"
	 viewBox="0 0 1024 1024" style="enable-background:new 0 0 1024 1024;" xml:space="preserve">
<style type="text/css">
	.st0{fill-rule:evenodd;clip-rule:evenodd;fill:#27A5E7;}
	.st1{fill-rule:evenodd;clip-rule:evenodd;fill:#C8DAEA;}
	.st2{fill-rule:evenodd;clip-rule:evenodd;fill:#A9C9DD;}
	.st3{fill-rule:evenodd;clip-rule:evenodd;fill:url(#SVGID_1_);}
</style>
<g id="Telegram">
	<circle id="Oval_26_" class="st0" cx="512" cy="512" r="512"/>
	<g>
		<path class="st1" d="M402.1,726.7c-17.9,0-14.8-6.6-21-23.1l-52.5-167.9l404.6-233.1l5.8,11L402.1,726.7z"/>
		<path class="st2" d="M402.1,726.7c13.8,0,19.8-6.1,27.6-13.4l73.5-69.5l-91.7-53.7L402.1,726.7z"/>
		
			<linearGradient id="SVGID_1_" gradientUnits="userSpaceOnUse" x1="176.2665" y1="511.9809" x2="776.347" y2="511.9809" gradientTransform="matrix(1 0 0 -1 0 1024)">
			<stop  offset="0" style="stop-color:#EFF7FC"/>
			<stop  offset="1" style="stop-color:#FFFFFF"/>
		</linearGradient>
		<path class="st3" d="M411.4,590.1l222.4,159.6c25.4,13.6,43.7,6.6,50-22.9l90.5-414.2c9.2-36-14.2-52.4-38.5-41.7l-531.5,199
			c-36.3,14.2-36.1,33.7-6.6,42.5L334,553.7L706,325c14.9-8.8,30.6-14.7,19.4-5.1L411.4,590.1z"/>
	</g>
</g>
<g id="channel-logos-white">
</g>
</svg>
