<svg width="54" height="25" viewBox="0 0 54 25" fill="none" xmlns="http://www.w3.org/2000/svg">
<path d="M19.921 20.228C19.1483 20.228 18.4707 20.057 17.888 19.715C17.3053 19.3603 16.8493 18.8727 16.52 18.252C16.2033 17.6187 16.045 16.8903 16.045 16.067V9.721H18.192V15.877C18.192 16.3457 18.287 16.7573 18.477 17.112C18.667 17.4667 18.933 17.7453 19.275 17.948C19.617 18.138 20.0097 18.233 20.453 18.233C20.909 18.233 21.308 18.1317 21.65 17.929C21.992 17.7263 22.258 17.4413 22.448 17.074C22.6507 16.7067 22.752 16.276 22.752 15.782V9.721H24.88V20H22.847V17.986L23.075 18.252C22.8343 18.8853 22.4353 19.373 21.878 19.715C21.3207 20.057 20.6683 20.228 19.921 20.228ZM30.0848 20.228C29.3882 20.228 28.7738 20.1077 28.2418 19.867C27.7225 19.6137 27.3172 19.2717 27.0258 18.841C26.7345 18.3977 26.5888 17.8783 26.5888 17.283C26.5888 16.7257 26.7092 16.2253 26.9498 15.782C27.2032 15.3387 27.5895 14.965 28.1088 14.661C28.6282 14.357 29.2805 14.1417 30.0658 14.015L33.6378 13.426V15.117L30.4838 15.668C29.9138 15.7693 29.4958 15.953 29.2298 16.219C28.9638 16.4723 28.8308 16.8017 28.8308 17.207C28.8308 17.5997 28.9765 17.9227 29.2678 18.176C29.5718 18.4167 29.9582 18.537 30.4268 18.537C31.0095 18.537 31.5162 18.4103 31.9468 18.157C32.3902 17.9037 32.7322 17.568 32.9728 17.15C33.2135 16.7193 33.3338 16.2443 33.3338 15.725V13.084C33.3338 12.5773 33.1438 12.1657 32.7638 11.849C32.3965 11.5197 31.9025 11.355 31.2818 11.355C30.7118 11.355 30.2115 11.507 29.7808 11.811C29.3628 12.1023 29.0525 12.4823 28.8498 12.951L27.0638 12.058C27.2538 11.5513 27.5642 11.108 27.9948 10.728C28.4255 10.3353 28.9258 10.0313 29.4958 9.816C30.0785 9.60067 30.6928 9.493 31.3388 9.493C32.1495 9.493 32.8652 9.645 33.4858 9.949C34.1192 10.253 34.6068 10.6773 34.9488 11.222C35.3035 11.754 35.4808 12.3747 35.4808 13.084V20H33.4288V18.138L33.8658 18.195C33.6252 18.613 33.3148 18.974 32.9348 19.278C32.5675 19.582 32.1432 19.8163 31.6618 19.981C31.1932 20.1457 30.6675 20.228 30.0848 20.228ZM37.6112 20V5.617H39.7582V20H37.6112ZM42.8004 24.18C42.5471 24.18 42.2938 24.1547 42.0404 24.104C41.7998 24.066 41.5781 24.0027 41.3754 23.914V22.071C41.5274 22.109 41.7111 22.1407 41.9264 22.166C42.1418 22.204 42.3508 22.223 42.5534 22.223C43.1488 22.223 43.5858 22.09 43.8644 21.824C44.1558 21.5707 44.4154 21.178 44.6434 20.646L45.3274 19.088L45.2894 20.893L40.8434 9.721H43.1424L46.4294 18.29H45.6504L48.9184 9.721H51.2364L46.6954 21.121C46.4548 21.729 46.1508 22.261 45.7834 22.717C45.4288 23.1857 45.0044 23.5467 44.5104 23.8C44.0291 24.0533 43.4591 24.18 42.8004 24.18Z" fill="#242A40"/>
<path d="M7.296 20.111C6.27 20.111 5.31367 19.9273 4.427 19.56C3.553 19.1927 2.78034 18.6797 2.109 18.021C1.45034 17.3623 0.931003 16.5897 0.551003 15.703C0.18367 14.8163 2.86102e-06 13.8473 2.86102e-06 12.796C2.86102e-06 11.7447 0.18367 10.7757 0.551003 9.889C0.931003 8.98967 1.45034 8.217 2.109 7.571C2.76767 6.91233 3.54034 6.40567 4.427 6.051C5.31367 5.68367 6.27 5.5 7.296 5.5C8.33467 5.5 9.291 5.68367 10.165 6.051C11.0517 6.40567 11.8243 6.91233 12.483 7.571C13.1543 8.22967 13.6737 9.00233 14.041 9.889C14.4083 10.7757 14.592 11.7447 14.592 12.796C14.592 13.8473 14.402 14.8163 14.022 15.703C13.6547 16.5897 13.1417 17.3623 12.483 18.021C11.8243 18.6797 11.0517 19.1927 10.165 19.56C9.27834 19.9273 8.322 20.111 7.296 20.111ZM7.296 18.059C8.03067 18.059 8.702 17.926 9.31 17.66C9.93067 17.394 10.469 17.0267 10.925 16.558C11.381 16.0767 11.7357 15.5193 11.989 14.886C12.2423 14.24 12.369 13.5433 12.369 12.796C12.369 12.0487 12.2423 11.3583 11.989 10.725C11.7357 10.0917 11.381 9.53433 10.925 9.053C10.469 8.57167 9.93067 8.198 9.31 7.932C8.702 7.666 8.03067 7.533 7.296 7.533C6.56134 7.533 5.88367 7.666 5.263 7.932C4.655 8.198 4.123 8.57167 3.667 9.053C3.211 9.53433 2.85634 10.0917 2.603 10.725C2.36234 11.3583 2.242 12.0487 2.242 12.796C2.242 13.5433 2.36234 14.24 2.603 14.886C2.85634 15.5193 3.211 16.0767 3.667 16.558C4.123 17.0267 4.66134 17.394 5.282 17.66C5.90267 17.926 6.574 18.059 7.296 18.059ZM14.349 21L8.849 19L11.989 15.4542L14.349 21Z" fill="#242A40"/>
</svg>
