<?xml version="1.0" encoding="utf-8"?>
<!-- Generator: Adobe Illustrator 24.1.0, SVG Export Plug-In . SVG Version: 6.00 Build 0)  -->
<svg version="1.1" id="Layer_1" xmlns="http://www.w3.org/2000/svg" xmlns:xlink="http://www.w3.org/1999/xlink" x="0px" y="0px"
	 viewBox="0 0 1024 1024" style="enable-background:new 0 0 1024 1024;" xml:space="preserve">
<style type="text/css">
	.st0{fill-rule:evenodd;clip-rule:evenodd;fill:#21D366;}
	.st1{fill-rule:evenodd;clip-rule:evenodd;fill:#FFFFFF;}
</style>
<g id="Whatsapp">
	<circle id="Oval_28_" class="st0" cx="512" cy="512" r="512"/>
	<path class="st1" d="M421.2,369.1c5,0,9.9,0,14.3,0.2c5.4,0.2,11.3,0.5,16.8,12.9c6.6,14.7,21.1,51.4,22.7,55
		c1.9,3.8,3.1,8.1,0.6,13.1s-3.7,8.1-7.4,12.4c-3.7,4.4-7.9,9.8-11.2,13.1c-3.7,3.7-7.6,7.7-3.3,15.1c4.3,7.4,19.3,31.7,41.5,51.4
		c28.5,25.4,52.6,33.2,60,36.9c7.5,3.7,11.9,3.1,16.2-1.8c4.3-4.9,18.7-21.7,23.7-29.1c5.1-7.4,10-6.2,16.8-3.7s43.6,20.5,51,24.2
		c7.5,3.7,12.5,5.6,14.4,8.6c1.9,3.2,1.9,18-4.3,35.4c-6.2,17.3-36.8,34-50.4,35.3c-13.6,1.2-26.5,6.2-89.6-18.6
		c-75.8-29.8-123.8-107.3-127.5-112.2S375,477.1,375,440.5s19.3-54.6,26.1-62C408.1,371,416.2,369.1,421.2,369.1z M526.9,259.4
		c-137,0-248.4,110.9-248.4,247.1c-0.1,46.7,13,92.2,37.9,131.5l5.9,9.4l-25.2,91.2l94-24.6l9.1,5.3c38.1,22.5,81.8,34.5,126.3,34.5
		c137,0,248.3-110.9,248.4-247.1c0.1-66-25.7-128.1-72.6-174.8C655.6,285.2,593.3,259.4,526.9,259.4z M526.9,209.2
		c80,0.1,155,31.1,211.4,87.2c56.4,56.2,87.4,130.8,87.4,210.3C825.6,670.6,691.6,804,526.9,804c-50.1,0-99.3-12.6-142.9-36.2
		l-158.4,41.3L268,655c-26.1-45-39.9-96.3-39.9-148.6C228.2,342.6,362.2,209.2,526.9,209.2z"/>
</g>
<g id="channel-logos-white">
</g>
</svg>
